<svg width="75" height="75" viewBox="0 0 153 153" fill="none" xmlns="http://www.w3.org/2000/svg">
<rect x="152.5" y="152.5" width="24" height="24" transform="rotate(-180 152.5 152.5)" stroke="#F3A42D"/>
<rect x="127.5" y="127.5" width="24" height="24" transform="rotate(-180 127.5 127.5)" stroke="#F3A42D"/>
<rect x="127.5" y="127.5" width="49" height="49" transform="rotate(-180 127.5 127.5)" stroke="#F3A42D"/>
<line y1="-0.5" x2="25" y2="-0.5" transform="matrix(0 1 1 0 104 128)" stroke="#F3A42D"/>
<line y1="-0.5" x2="12" y2="-0.5" transform="matrix(0 1 1 0 91 140)" stroke="#F3A42D"/>
<line y1="-0.5" x2="12" y2="-0.5" transform="matrix(0 1 1 0 66 140)" stroke="#F3A42D"/>
<line y1="-0.5" x2="12" y2="-0.5" transform="matrix(0 1 1 0 66 128)" stroke="#F3A42D"/>
<line y1="-0.5" x2="12" y2="-0.5" transform="matrix(0 1 1 0 54 128)" stroke="#F3A42D"/>
<line y1="-0.5" x2="12" y2="-0.5" transform="matrix(0 1 1 0 54 116)" stroke="#F3A42D"/>
<line y1="-0.5" x2="12" y2="-0.5" transform="matrix(0 1 1 0 37 128)" stroke="#F3A42D"/>
<line y1="-0.5" x2="12" y2="-0.5" transform="matrix(0 1 1 0 22 128)" stroke="#F3A42D"/>
<line y1="-0.5" x2="12" y2="-0.5" transform="matrix(0 1 1 0 37 116)" stroke="#F3A42D"/>
<line y1="-0.5" x2="16" y2="-0.5" transform="matrix(1 0 0 -1 21 140)" stroke="#F3A42D"/>
<line y1="-0.5" x2="16" y2="-0.5" transform="matrix(1 0 0 -1 37 116)" stroke="#F3A42D"/>
<line y1="-0.5" x2="12" y2="-0.5" transform="matrix(1 0 0 -1 53 140)" stroke="#F3A42D"/>
<line y1="-0.5" x2="12" y2="-0.5" transform="matrix(1 0 0 -1 53 128)" stroke="#F3A42D"/>
<line y1="-0.5" x2="13" y2="-0.5" transform="matrix(1 0 0 -1 90 152)" stroke="#F3A42D"/>
<line y1="-0.5" x2="25" y2="-0.5" transform="matrix(1 0 0 -1 65 152)" stroke="#F3A42D"/>
<line y1="-0.5" x2="25" y2="-0.5" transform="matrix(1 0 0 -1 65 140)" stroke="#F3A42D"/>
<line y1="-0.5" x2="53" y2="-0.5" transform="matrix(1 0 0 -1 0 128)" stroke="#F3A42D"/>
<line x1="128" y1="103.5" x2="153" y2="103.5" stroke="#F3A42D"/>
<line x1="140" y1="90.5" x2="152" y2="90.5" stroke="#F3A42D"/>
<line x1="140" y1="65.5" x2="152" y2="65.5" stroke="#F3A42D"/>
<line x1="128" y1="65.5" x2="140" y2="65.5" stroke="#F3A42D"/>
<line x1="128" y1="53.5" x2="140" y2="53.5" stroke="#F3A42D"/>
<line x1="116" y1="53.5" x2="128" y2="53.5" stroke="#F3A42D"/>
<line x1="128" y1="36.5" x2="140" y2="36.5" stroke="#F3A42D"/>
<line x1="128" y1="21.5" x2="140" y2="21.5" stroke="#F3A42D"/>
<line x1="116" y1="36.5" x2="128" y2="36.5" stroke="#F3A42D"/>
<line x1="140.5" y1="21" x2="140.5" y2="37" stroke="#F3A42D"/>
<line x1="116.5" y1="37" x2="116.5" y2="53" stroke="#F3A42D"/>
<line x1="140.5" y1="53" x2="140.5" y2="65" stroke="#F3A42D"/>
<line x1="128.5" y1="53" x2="128.5" y2="65" stroke="#F3A42D"/>
<line x1="152.5" y1="90" x2="152.5" y2="103" stroke="#F3A42D"/>
<line x1="152.5" y1="65" x2="152.5" y2="90" stroke="#F3A42D"/>
<line x1="140.5" y1="65" x2="140.5" y2="90" stroke="#F3A42D"/>
<line x1="128.5" x2="128.5" y2="53" stroke="#F3A42D"/>
</svg>
