<svg width="75" height="75" viewBox="0 0 153 153" fill="none" xmlns="http://www.w3.org/2000/svg">
<rect x="0.5" y="152.5" width="24" height="24" transform="rotate(-90 0.5 152.5)" stroke="#F3A42D"/>
<rect x="25.5" y="127.5" width="24" height="24" transform="rotate(-90 25.5 127.5)" stroke="#F3A42D"/>
<rect x="25.5" y="127.5" width="49" height="49" transform="rotate(-90 25.5 127.5)" stroke="#F3A42D"/>
<line y1="-0.5" x2="25" y2="-0.5" transform="matrix(-1 0 0 1 25 104)" stroke="#F3A42D"/>
<line y1="-0.5" x2="12" y2="-0.5" transform="matrix(-1 0 0 1 13 91)" stroke="#F3A42D"/>
<line y1="-0.5" x2="12" y2="-0.5" transform="matrix(-1 0 0 1 13 66)" stroke="#F3A42D"/>
<line y1="-0.5" x2="12" y2="-0.5" transform="matrix(-1 0 0 1 25 66)" stroke="#F3A42D"/>
<line y1="-0.5" x2="12" y2="-0.5" transform="matrix(-1 0 0 1 25 54)" stroke="#F3A42D"/>
<line y1="-0.5" x2="12" y2="-0.5" transform="matrix(-1 0 0 1 37 54)" stroke="#F3A42D"/>
<line y1="-0.5" x2="12" y2="-0.5" transform="matrix(-1 0 0 1 25 37)" stroke="#F3A42D"/>
<line y1="-0.5" x2="12" y2="-0.5" transform="matrix(-1 0 0 1 25 22)" stroke="#F3A42D"/>
<line y1="-0.5" x2="12" y2="-0.5" transform="matrix(-1 0 0 1 37 37)" stroke="#F3A42D"/>
<line y1="-0.5" x2="16" y2="-0.5" transform="matrix(0 1 1 0 13 21)" stroke="#F3A42D"/>
<line y1="-0.5" x2="16" y2="-0.5" transform="matrix(0 1 1 0 37 37)" stroke="#F3A42D"/>
<line y1="-0.5" x2="12" y2="-0.5" transform="matrix(0 1 1 0 13 53)" stroke="#F3A42D"/>
<line y1="-0.5" x2="12" y2="-0.5" transform="matrix(0 1 1 0 25 53)" stroke="#F3A42D"/>
<line y1="-0.5" x2="13" y2="-0.5" transform="matrix(0 1 1 0 1 90)" stroke="#F3A42D"/>
<line y1="-0.5" x2="25" y2="-0.5" transform="matrix(0 1 1 0 1 65)" stroke="#F3A42D"/>
<line y1="-0.5" x2="25" y2="-0.5" transform="matrix(0 1 1 0 13 65)" stroke="#F3A42D"/>
<line y1="-0.5" x2="53" y2="-0.5" transform="matrix(0 1 1 0 25 0)" stroke="#F3A42D"/>
<line x1="49.5" y1="128" x2="49.5" y2="153" stroke="#F3A42D"/>
<line x1="62.5" y1="140" x2="62.5" y2="152" stroke="#F3A42D"/>
<line x1="87.5" y1="140" x2="87.5" y2="152" stroke="#F3A42D"/>
<line x1="87.5" y1="128" x2="87.5" y2="140" stroke="#F3A42D"/>
<line x1="99.5" y1="128" x2="99.5" y2="140" stroke="#F3A42D"/>
<line x1="99.5" y1="116" x2="99.5" y2="128" stroke="#F3A42D"/>
<line x1="116.5" y1="128" x2="116.5" y2="140" stroke="#F3A42D"/>
<line x1="131.5" y1="128" x2="131.5" y2="140" stroke="#F3A42D"/>
<line x1="116.5" y1="116" x2="116.5" y2="128" stroke="#F3A42D"/>
<line x1="132" y1="140.5" x2="116" y2="140.5" stroke="#F3A42D"/>
<line x1="116" y1="116.5" x2="100" y2="116.5" stroke="#F3A42D"/>
<line x1="100" y1="140.5" x2="88" y2="140.5" stroke="#F3A42D"/>
<line x1="100" y1="128.5" x2="88" y2="128.5" stroke="#F3A42D"/>
<line x1="63" y1="152.5" x2="50" y2="152.5" stroke="#F3A42D"/>
<line x1="88" y1="152.5" x2="63" y2="152.5" stroke="#F3A42D"/>
<line x1="88" y1="140.5" x2="63" y2="140.5" stroke="#F3A42D"/>
<line x1="153" y1="128.5" x2="100" y2="128.5" stroke="#F3A42D"/>
</svg>
