{
  "accessors": [
    {
      "bufferView": 2,
      "componentType": 5126,
      "count": 2114,
      "max": [
        6.529936790466309,
        4.607844829559326,
        4.772965908050537
      ],
      "min": [
        -6.530664920806885,
        -4.607844829559326,
        -4.730495929718018
      ],
      "type": "VEC3"
    },
    {
      "bufferView": 2,
      "byteOffset": 25368,
      "componentType": 5126,
      "count": 2114,
      "max": [
        0.9992952942848206,
        0.9994882941246033,
        0.99852055311203
      ],
      "min": [
        -0.9997929930686951,
        -0.9994882941246033,
        -1.0
      ],
      "type": "VEC3"
    },
    {
      "bufferView": 1,
      "componentType": 5126,
      "count": 2114,
      "max": [
        0.9936977028846741,
        0.9989999532699585
      ],
      "min": [
        0.0010000000474974513,
        0.0010000000474974513
      ],
      "type": "VEC2"
    },
    {
      "bufferView": 0,
      "componentType": 5125,
      "count": 2436,
      "type": "SCALAR"
    },
    {
      "bufferView": 2,
      "byteOffset": 50736,
      "componentType": 5126,
      "count": 174,
      "max": [
        -4.2088727951049805,
        1.9023890495300293,
        0.5766212940216064
      ],
      "min": [
        -6.514582633972168,
        -1.9023891687393188,
        -1.6027326583862305
      ],
      "type": "VEC3"
    },
    {
      "bufferView": 2,
      "byteOffset": 52824,
      "componentType": 5126,
      "count": 174,
      "max": [
        0.82524573802948,
        0.9962796568870544,
        0.791191041469574
      ],
      "min": [
        -0.9919958114624023,
        -0.9962796568870544,
        -0.8868261575698853
      ],
      "type": "VEC3"
    },
    {
      "bufferView": 1,
      "byteOffset": 16912,
      "componentType": 5126,
      "count": 174,
      "max": [
        0.9705631732940674,
        0.9912347793579102
      ],
      "min": [
        0.06462699174880981,
        0.016906745731830597
      ],
      "type": "VEC2"
    },
    {
      "bufferView": 0,
      "byteOffset": 9744,
      "componentType": 5125,
      "count": 210,
      "type": "SCALAR"
    }
  ],
  "asset": {
    "extras": {
      "author": "Maksim Batyrev (https://sketchfab.com/c3posw01)",
      "license": "CC-BY-4.0 (http://creativecommons.org/licenses/by/4.0/)",
      "source": "https://sketchfab.com/3d-models/low-poly-elephant-4d16e8e3344f4c7499cf9d2c488e4c9b",
      "title": "Low Poly Elephant"
    },
    "generator": "Sketchfab-13.74.0",
    "version": "2.0"
  },
  "bufferViews": [
    {
      "buffer": 0,
      "byteLength": 10584,
      "name": "floatBufferViews",
      "target": 34963
    },
    {
      "buffer": 0,
      "byteLength": 18304,
      "byteOffset": 10584,
      "byteStride": 8,
      "name": "floatBufferViews",
      "target": 34962
    },
    {
      "buffer": 0,
      "byteLength": 54912,
      "byteOffset": 28888,
      "byteStride": 12,
      "name": "floatBufferViews",
      "target": 34962
    }
  ],
  "buffers": [
    {
      "byteLength": 83800,
      "uri": "scene.bin"
    }
  ],
  "materials": [
    {
      "doubleSided": true,
      "name": "Mat_Elephant_Body",
      "pbrMetallicRoughness": {
        "baseColorFactor": [
          1.6724746366,
          0.0,
          0.0,
          1.0
        ],
        "metallicFactor": 0.0,
        "roughnessFactor": 0.8866308637
      }
    },
    {
      "doubleSided": true,
      "name": "Mat_Elephant_Tusk",
      "pbrMetallicRoughness": {
        "baseColorFactor": [
          0.8617452327,
          0.8617452327,
          0.8617452327,
          1.0
        ],
        "metallicFactor": 0.0,
        "roughnessFactor": 0.8929713596
      }
    }
  ],
  "meshes": [
    {
      "name": "Elephant_LP_Mat_Elephant_Body_0",
      "primitives": [
        {
          "attributes": {
            "NORMAL": 1,
            "POSITION": 0,
            "TEXCOORD_0": 2
          },
          "indices": 3,
          "material": 0,
          "mode": 4
        }
      ]
    },
    {
      "name": "Elephant_LP_Mat_Elephant_Tusk_0",
      "primitives": [
        {
          "attributes": {
            "NORMAL": 5,
            "POSITION": 4,
            "TEXCOORD_0": 6
          },
          "indices": 7,
          "material": 1,
          "mode": 4
        }
      ]
    }
  ],
  "nodes": [
    {
      "children": [
        1
      ],
      "matrix": [
        1.0,
        0.0,
        0.0,
        0.0,
        0.0,
        2.220446049250313e-16,
        -1.0,
        0.0,
        0.0,
        1.0,
        2.220446049250313e-16,
        0.0,
        0.0,
        0.0,
        0.0,
        1.0
      ],
      "name": "Sketchfab_model"
    },
    {
      "children": [
        2
      ],
      "matrix": [
        1.0,
        0.0,
        0.0,
        0.0,
        0.0,
        0.0,
        1.0,
        0.0,
        0.0,
        -1.0,
        0.0,
        0.0,
        0.0,
        0.0,
        0.0,
        1.0
      ],
      "name": "70bd004103014b2880d004c5fde61d4a.fbx"
    },
    {
      "children": [
        3
      ],
      "name": "RootNode"
    },
    {
      "children": [
        4,
        5
      ],
      "matrix": [
        1.0,
        0.0,
        0.0,
        0.0,
        0.0,
        2.220446049250313e-16,
        -1.0,
        0.0,
        0.0,
        1.0,
        2.220446049250313e-16,
        0.0,
        -1.3646070957183838,
        4.730494976043701,
        2.0677650525158242e-07,
        1.0
      ],
      "name": "Elephant_LP"
    },
    {
      "mesh": 0,
      "name": "Elephant_LP_Mat_Elephant_Body_0"
    },
    {
      "mesh": 1,
      "name": "Elephant_LP_Mat_Elephant_Tusk_0"
    }
  ],
  "scene": 0,
  "scenes": [
    {
      "name": "Sketchfab_Scene",
      "nodes": [
        0
      ]
    }
  ]
}
